{
	"asset":{
		"version":"2.0",
		"generator":"Houdini GLTF 2.0 Exporter"
	},
	"accessors":[
		{
			"bufferView":0,
			"componentType":5121,
			"count":36,
			"type":"SCALAR",
			"min":[0
			],
			"max":[35
			]
		},
		{
			"bufferView":1,
			"componentType":5126,
			"count":36,
			"type":"VEC3",
			"min":[-0.5,-0.5,-0.5
			],
			"max":[0.5,0.5,0.5
			]
		},
		{
			"bufferView":2,
			"componentType":5126,
			"count":36,
			"type":"VEC3",
			"min":[-1,-1,-1
			],
			"max":[1,1,1
			]
		}
	],
	"buffers":[
		{
			"uri":"cube_data.bin",
			"byteLength":900,
			"name":"main_buffer"
		}
	],
	"bufferViews":[
		{
			"buffer":0,
			"byteLength":36,
			"target":34963
		},
		{
			"buffer":0,
			"byteOffset":36,
			"byteLength":432,
			"target":34962
		},
		{
			"buffer":0,
			"byteOffset":468,
			"byteLength":432,
			"target":34962
		}
	],
	"nodes":[
		{
			"name":"box1",
			"mesh":0
		}
	],
	"meshes":[
		{
			"primitives":[
				{
					"attributes":{
						"NORMAL":2,
						"POSITION":1
					},
					"indices":0
				}
			]
		}
	],
	"scenes":[
		{
			"nodes":[0
			]
		}
	],
	"scene":0
}
