{
    "asset" : {
        "generator" : "Khronos glTF Blender I/O v1.4.40",
        "version" : "2.0"
    },
    "scene" : 0,
    "scenes" : [
        {
            "name" : "Scene",
            "nodes" : [
                0,
                1,
                2,
                3
            ]
        }
    ],
    "nodes" : [
        {
            "name" : "Camera.001",
            "rotation" : [
                0.4835357666015625,
                0.336871862411499,
                -0.2087038904428482,
                0.7804826498031616
            ],
            "translation" : [
                7.4811320304870605,
                5.34366512298584,
                6.5076398849487305
            ]
        },
        {
            "mesh" : 0,
            "name" : "SciFiHelmet"
        },
        {
            "name" : "Light",
            "rotation" : [
                0.16907575726509094,
                0.7558803558349609,
                -0.27217137813568115,
                0.570947527885437
            ],
            "translation" : [
                4.076245307922363,
                5.903861999511719,
                -1.0054539442062378
            ]
        },
        {
            "name" : "Camera",
            "rotation" : [
                0.483536034822464,
                0.33687159419059753,
                -0.20870360732078552,
                0.7804827094078064
            ],
            "translation" : [
                7.358891487121582,
                4.958309173583984,
                6.925790786743164
            ]
        }
    ],
    "materials" : [
        {
            "name" : "SciFiHelmet",
            "pbrMetallicRoughness" : {}
        }
    ],
    "meshes" : [
        {
            "name" : "SciFiHelmet",
            "primitives" : [
                {
                    "attributes" : {
                        "POSITION" : 0,
                        "NORMAL" : 1,
                        "TEXCOORD_0" : 2
                    },
                    "indices" : 3,
                    "material" : 0
                }
            ]
        }
    ],
    "accessors" : [
        {
            "bufferView" : 0,
            "componentType" : 5126,
            "count" : 70074,
            "max" : [
                1.151152491569519,
                1.4587184190750122,
                1.2511277198791504
            ],
            "min" : [
                -1.151152491569519,
                -1.4587182998657227,
                -1.2511286735534668
            ],
            "type" : "VEC3"
        },
        {
            "bufferView" : 1,
            "componentType" : 5126,
            "count" : 70074,
            "type" : "VEC3"
        },
        {
            "bufferView" : 2,
            "componentType" : 5126,
            "count" : 70074,
            "type" : "VEC2"
        },
        {
            "bufferView" : 3,
            "componentType" : 5125,
            "count" : 70074,
            "type" : "SCALAR"
        }
    ],
    "bufferViews" : [
        {
            "buffer" : 0,
            "byteLength" : 840888,
            "byteOffset" : 0
        },
        {
            "buffer" : 0,
            "byteLength" : 840888,
            "byteOffset" : 840888
        },
        {
            "buffer" : 0,
            "byteLength" : 560592,
            "byteOffset" : 1681776
        },
        {
            "buffer" : 0,
            "byteLength" : 280296,
            "byteOffset" : 2242368
        }
    ],
    "buffers" : [
        {
            "byteLength" : 2522664,
            "uri" : "SciFiHelmet.bin"
        }
    ]
}
