{"buffers":[{"uri":"SciFiHelmet.bin","byteLength":1961400}],"asset":{"version":"2.0","generator":"gltfpack 0.15"},"bufferViews":[{"buffer":0,"byteOffset":0,"byteLength":840552,"byteStride":12,"target":34962},{"buffer":0,"byteOffset":840552,"byteLength":840552,"byteStride":12,"target":34962},{"buffer":0,"byteOffset":1681104,"byteLength":280296,"target":34963}],"accessors":[{"bufferView":0,"byteOffset":0,"componentType":5126,"count":70046,"type":"VEC3","min":[-1.15115249,-1.4587183,-1.25112867],"max":[1.15115249,1.45871842,1.25112772]},{"bufferView":1,"byteOffset":0,"componentType":5126,"count":70046,"type":"VEC3"},{"bufferView":2,"byteOffset":0,"componentType":5125,"count":70074,"type":"SCALAR"}],"materials":[{"name":"SciFiHelmet","pbrMetallicRoughness":{}}],"meshes":[{"primitives":[{"attributes":{"POSITION":0,"NORMAL":1},"mode":4,"indices":2,"material":0}]}],"nodes":[{"mesh":0}],"scenes":[{"name":"Scene","nodes":[0]}],"scene":0}