{
	"asset":{
		"version":"2.0",
		"generator":"Houdini GLTF 2.0 Exporter"
	},
	"accessors":[
		{
			"bufferView":0,
			"componentType":5123,
			"count":6912,
			"type":"SCALAR",
			"min":[0
			],
			"max":[1153
			]
		},
		{
			"bufferView":1,
			"componentType":5126,
			"count":1154,
			"type":"VEC3",
			"min":[-0.998026729,-1,-0.998026729
			],
			"max":[0.998026729,1,0.998026729
			]
		},
		{
			"bufferView":2,
			"componentType":5126,
			"count":1154,
			"type":"VEC3",
			"min":[-0.99803704,-1,-0.99803704
			],
			"max":[0.99803704,1,0.99803704
			]
		}
	],
	"buffers":[
		{
			"uri":"sphere_data.bin",
			"byteLength":41520,
			"name":"main_buffer"
		}
	],
	"bufferViews":[
		{
			"buffer":0,
			"byteLength":13824,
			"target":34963
		},
		{
			"buffer":0,
			"byteOffset":13824,
			"byteLength":13848,
			"target":34962
		},
		{
			"buffer":0,
			"byteOffset":27672,
			"byteLength":13848,
			"target":34962
		}
	],
	"nodes":[
		{
			"name":"geo1",
			"mesh":0
		}
	],
	"meshes":[
		{
			"primitives":[
				{
					"attributes":{
						"NORMAL":2,
						"POSITION":1
					},
					"indices":0
				}
			]
		}
	],
	"scenes":[
		{
			"nodes":[0
			]
		}
	],
	"scene":0
}
